<svg width="30" height="30" viewBox="0 0 30 30" fill="none" xmlns="http://www.w3.org/2000/svg">
<path d="M-2.2651e-06 30C3.93965 30 7.84073 29.224 11.4805 27.7164C15.1203 26.2087 18.4274 23.999 21.2132 21.2132C23.999 18.4274 26.2087 15.1203 27.7164 11.4805C29.224 7.84073 30 3.93965 30 -2.62253e-06L17.9186 -1.85447e-06C17.9186 2.3531 17.4551 4.68315 16.5546 6.85713C15.6541 9.03111 14.3342 11.0064 12.6703 12.6703C11.0064 14.3342 9.03111 15.6541 6.85713 16.5546C4.68315 17.4551 2.3531 17.9186 -1.06483e-06 17.9186L-2.2651e-06 30Z" fill="#6B4CCA" fill-opacity="0.89"/>
</svg>
